<?xml version="1.0" encoding="UTF-8"?>
<!--Generator: Apple Native CoreSVG 232.5-->
<!DOCTYPE svg
PUBLIC "-//W3C//DTD SVG 1.1//EN"
       "http://www.w3.org/Graphics/SVG/1.1/DTD/svg11.dtd">
<svg version="1.1" xmlns="http://www.w3.org/2000/svg" xmlns:xlink="http://www.w3.org/1999/xlink" width="3300" height="2200">
 <!--glyph: "uni101281.medium", point size: 100.0, font version: "19.2d2e1", template writer version: "128"-->
 <style>.monochrome-0 {-sfsymbols-motion-group:1}
.monochrome-1 {-sfsymbols-motion-group:0;-sfsymbols-always-pulses:true}

.multicolor-0:tintColor {-sfsymbols-motion-group:1}
.multicolor-1:tintColor {-sfsymbols-motion-group:0;-sfsymbols-always-pulses:true}

.hierarchical-0:secondary {-sfsymbols-motion-group:1}
.hierarchical-1:primary {-sfsymbols-motion-group:0}

.SFSymbolsPreviewWireframe {fill:none;opacity:1.0;stroke:black;stroke-width:0.5}
</style>
 <g id="Notes">
  <rect height="2200" id="artboard" style="fill:white;opacity:1" width="3300" x="0" y="0"/>
  <line style="fill:none;stroke:black;opacity:1;stroke-width:0.5;" x1="263" x2="3036" y1="292" y2="292"/>
  <text style="stroke:none;fill:black;font-family:sans-serif;font-size:13;font-weight:bold;" transform="matrix(1 0 0 1 263 322)">Weight/Scale Variations</text>
  <text style="stroke:none;fill:black;font-family:sans-serif;font-size:13;text-anchor:middle;" transform="matrix(1 0 0 1 559.711 322)">Ultralight</text>
  <text style="stroke:none;fill:black;font-family:sans-serif;font-size:13;text-anchor:middle;" transform="matrix(1 0 0 1 856.422 322)">Thin</text>
  <text style="stroke:none;fill:black;font-family:sans-serif;font-size:13;text-anchor:middle;" transform="matrix(1 0 0 1 1153.13 322)">Light</text>
  <text style="stroke:none;fill:black;font-family:sans-serif;font-size:13;text-anchor:middle;" transform="matrix(1 0 0 1 1449.84 322)">Regular</text>
  <text style="stroke:none;fill:black;font-family:sans-serif;font-size:13;text-anchor:middle;" transform="matrix(1 0 0 1 1746.56 322)">Medium</text>
  <text style="stroke:none;fill:black;font-family:sans-serif;font-size:13;text-anchor:middle;" transform="matrix(1 0 0 1 2043.27 322)">Semibold</text>
  <text style="stroke:none;fill:black;font-family:sans-serif;font-size:13;text-anchor:middle;" transform="matrix(1 0 0 1 2339.98 322)">Bold</text>
  <text style="stroke:none;fill:black;font-family:sans-serif;font-size:13;text-anchor:middle;" transform="matrix(1 0 0 1 2636.69 322)">Heavy</text>
  <text style="stroke:none;fill:black;font-family:sans-serif;font-size:13;text-anchor:middle;" transform="matrix(1 0 0 1 2933.4 322)">Black</text>
  <line style="fill:none;stroke:black;opacity:1;stroke-width:0.5;" x1="263" x2="3036" y1="1903" y2="1903"/>
  <g transform="matrix(0.2 0 0 0.2 263 1933)">
   <path d="m46.2402 4.15039c21.5332 0 39.4531-17.8711 39.4531-39.4043s-17.9688-39.4043-39.502-39.4043c-21.4844 0-39.3555 17.8711-39.3555 39.4043s17.9199 39.4043 39.4043 39.4043Zm0-7.42188c-17.7246 0-31.8848-14.209-31.8848-31.9824s14.1113-31.9824 31.8359-31.9824c17.7734 0 32.0312 14.209 32.0312 31.9824s-14.209 31.9824-31.9824 31.9824Zm-17.9688-31.9824c0 2.14844 1.51367 3.61328 3.75977 3.61328h10.498v10.5957c0 2.19727 1.46484 3.71094 3.61328 3.71094 2.24609 0 3.71094-1.51367 3.71094-3.71094v-10.5957h10.5957c2.19727 0 3.71094-1.46484 3.71094-3.61328 0-2.19727-1.51367-3.71094-3.71094-3.71094h-10.5957v-10.5469c0-2.24609-1.46484-3.75977-3.71094-3.75977-2.14844 0-3.61328 1.51367-3.61328 3.75977v10.5469h-10.498c-2.24609 0-3.75977 1.51367-3.75977 3.71094Z"/>
  </g>
  <g transform="matrix(0.2 0 0 0.2 281.506 1933)">
   <path d="m58.5449 14.5508c27.2461 0 49.8047-22.6074 49.8047-49.8047 0-27.2461-22.6074-49.8047-49.8535-49.8047-27.1973 0-49.7559 22.5586-49.7559 49.8047 0 27.1973 22.6074 49.8047 49.8047 49.8047Zm0-8.30078c-23.0469 0-41.4551-18.457-41.4551-41.5039s18.3594-41.5039 41.4062-41.5039 41.5527 18.457 41.5527 41.5039-18.457 41.5039-41.5039 41.5039Zm-22.6562-41.5039c0 2.39258 1.66016 4.00391 4.15039 4.00391h14.3555v14.4043c0 2.44141 1.66016 4.15039 4.05273 4.15039 2.44141 0 4.15039-1.66016 4.15039-4.15039v-14.4043h14.4043c2.44141 0 4.15039-1.61133 4.15039-4.00391 0-2.44141-1.70898-4.15039-4.15039-4.15039h-14.4043v-14.3555c0-2.49023-1.70898-4.19922-4.15039-4.19922-2.39258 0-4.05273 1.70898-4.05273 4.19922v14.3555h-14.3555c-2.49023 0-4.15039 1.70898-4.15039 4.15039Z"/>
  </g>
  <g transform="matrix(0.2 0 0 0.2 304.924 1933)">
   <path d="m74.8535 28.3203c34.8145 0 63.623-28.8086 63.623-63.5742 0-34.8145-28.8574-63.623-63.6719-63.623-34.7656 0-63.5254 28.8086-63.5254 63.623 0 34.7656 28.8086 63.5742 63.5742 63.5742Zm0-9.08203c-30.1758 0-54.4434-24.3164-54.4434-54.4922 0-30.2246 24.2188-54.4922 54.3945-54.4922 30.2246 0 54.541 24.2676 54.541 54.4922 0 30.1758-24.2676 54.4922-54.4922 54.4922Zm-28.8574-54.4922c0 2.58789 1.85547 4.39453 4.58984 4.39453h19.7266v19.7754c0 2.68555 1.85547 4.58984 4.44336 4.58984 2.68555 0 4.54102-1.85547 4.54102-4.58984v-19.7754h19.7754c2.68555 0 4.58984-1.80664 4.58984-4.39453 0-2.73438-1.85547-4.58984-4.58984-4.58984h-19.7754v-19.7266c0-2.73438-1.85547-4.63867-4.54102-4.63867-2.58789 0-4.44336 1.9043-4.44336 4.63867v19.7266h-19.7266c-2.73438 0-4.58984 1.85547-4.58984 4.58984Z"/>
  </g>
  <text style="stroke:none;fill:black;font-family:sans-serif;font-size:13;font-weight:bold;" transform="matrix(1 0 0 1 263 1953)">Design Variations</text>
  <text style="stroke:none;fill:black;font-family:sans-serif;font-size:13;" transform="matrix(1 0 0 1 263 1971)">Symbols are supported in up to nine weights and three scales.</text>
  <text style="stroke:none;fill:black;font-family:sans-serif;font-size:13;" transform="matrix(1 0 0 1 263 1989)">For optimal layout with text and other symbols, vertically align</text>
  <text style="stroke:none;fill:black;font-family:sans-serif;font-size:13;" transform="matrix(1 0 0 1 263 2007)">symbols with the adjacent text.</text>
  <line style="fill:none;stroke:#00AEEF;stroke-width:0.5;opacity:1.0;" x1="776" x2="776" y1="1919" y2="1933"/>
  <g transform="matrix(0.2 0 0 0.2 776 1933)">
   <path d="m16.5527 0.78125c2.58789 0 3.85742-0.976562 4.78516-3.71094l6.29883-17.2363h28.8086l6.29883 17.2363c0.927734 2.73438 2.19727 3.71094 4.73633 3.71094 2.58789 0 4.24805-1.5625 4.24805-4.00391 0-0.830078-0.146484-1.61133-0.537109-2.63672l-22.9004-60.9863c-1.12305-2.97852-3.125-4.49219-6.25-4.49219-3.02734 0-5.07812 1.46484-6.15234 4.44336l-22.9004 61.084c-0.390625 1.02539-0.537109 1.80664-0.537109 2.63672 0 2.44141 1.5625 3.95508 4.10156 3.95508Zm13.4766-28.3691 11.8652-32.8613h0.244141l11.8652 32.8613Z"/>
  </g>
  <line style="fill:none;stroke:#00AEEF;stroke-width:0.5;opacity:1.0;" x1="792.836" x2="792.836" y1="1919" y2="1933"/>
  <text style="stroke:none;fill:black;font-family:sans-serif;font-size:13;font-weight:bold;" transform="matrix(1 0 0 1 776 1953)">Margins</text>
  <text style="stroke:none;fill:black;font-family:sans-serif;font-size:13;" transform="matrix(1 0 0 1 776 1971)">Leading and trailing margins on the left and right side of each symbol</text>
  <text style="stroke:none;fill:black;font-family:sans-serif;font-size:13;" transform="matrix(1 0 0 1 776 1989)">can be adjusted by modifying the x-location of the margin guidelines.</text>
  <text style="stroke:none;fill:black;font-family:sans-serif;font-size:13;" transform="matrix(1 0 0 1 776 2007)">Modifications are automatically applied proportionally to all</text>
  <text style="stroke:none;fill:black;font-family:sans-serif;font-size:13;" transform="matrix(1 0 0 1 776 2025)">scales and weights.</text>
  <g transform="matrix(0.2 0 0 0.2 1289 1933)">
   <path d="m14.209 9.32617 8.49609 8.54492c4.29688 4.3457 9.22852 4.05273 13.8672-1.07422l53.4668-58.9355-4.83398-4.88281-53.0762 58.3984c-1.75781 2.00195-3.41797 2.49023-5.76172 0.146484l-5.85938-5.81055c-2.34375-2.29492-1.80664-4.00391 0.195312-5.81055l57.373-54.0039-4.88281-4.83398-57.959 54.4434c-4.93164 4.58984-5.32227 9.47266-1.02539 13.8184Zm32.0801-90.9668c-2.09961 2.05078-2.24609 4.93164-1.07422 6.88477 1.17188 1.80664 3.4668 2.97852 6.68945 2.14844 7.32422-1.70898 14.9414-2.00195 22.0703 2.68555l-2.92969 7.27539c-1.70898 4.15039-0.830078 7.08008 1.85547 9.81445l11.4746 11.5723c2.44141 2.44141 4.49219 2.53906 7.32422 2.05078l5.32227-0.976562 3.32031 3.36914-0.195312 2.7832c-0.195312 2.49023 0.439453 4.39453 2.88086 6.78711l3.80859 3.71094c2.39258 2.39258 5.46875 2.53906 7.8125 0.195312l14.5508-14.5996c2.34375-2.34375 2.24609-5.32227-0.146484-7.71484l-3.85742-3.80859c-2.39258-2.39258-4.24805-3.17383-6.64062-2.97852l-2.88086 0.244141-3.22266-3.17383 1.2207-5.61523c0.634766-2.83203-0.146484-5.0293-3.07617-7.95898l-10.9863-10.9375c-16.6992-16.6016-38.8672-16.2109-53.3203-1.75781Zm7.4707 1.85547c12.1582-8.88672 28.6133-7.37305 39.7461 3.75977l12.1582 12.0605c1.17188 1.17188 1.36719 2.09961 1.02539 3.80859l-1.61133 7.42188 7.51953 7.42188 4.93164-0.292969c1.26953-0.0488281 1.66016 0.0488281 2.63672 1.02539l2.88086 2.88086-12.207 12.207-2.88086-2.88086c-0.976562-0.976562-1.12305-1.36719-1.07422-2.68555l0.341797-4.88281-7.4707-7.42188-7.61719 1.26953c-1.61133 0.341797-2.34375 0.195312-3.56445-0.976562l-10.0098-10.0098c-1.26953-1.17188-1.41602-2.00195-0.634766-3.85742l4.39453-10.4492c-7.8125-7.27539-17.9688-10.4004-28.125-7.42188-0.78125 0.195312-1.07422-0.439453-0.439453-0.976562Z"/>
  </g>
  <text style="stroke:none;fill:black;font-family:sans-serif;font-size:13;font-weight:bold;" transform="matrix(1 0 0 1 1289 1953)">Exporting</text>
  <text style="stroke:none;fill:black;font-family:sans-serif;font-size:13;" transform="matrix(1 0 0 1 1289 1971)">Symbols should be outlined when exporting to ensure the</text>
  <text style="stroke:none;fill:black;font-family:sans-serif;font-size:13;" transform="matrix(1 0 0 1 1289 1989)">design is preserved when submitting to Xcode.</text>
  <text id="template-version" style="stroke:none;fill:black;font-family:sans-serif;font-size:13;text-anchor:end;" transform="matrix(1 0 0 1 3036 1933)">Template v.5.0</text>
  <text style="stroke:none;fill:black;font-family:sans-serif;font-size:13;text-anchor:end;" transform="matrix(1 0 0 1 3036 1951)">Requires Xcode 15 or greater</text>
  <text id="descriptive-name" style="stroke:none;fill:black;font-family:sans-serif;font-size:13;text-anchor:end;" transform="matrix(1 0 0 1 3036 1969)">Generated from thermometer.transmission</text>
  <text style="stroke:none;fill:black;font-family:sans-serif;font-size:13;text-anchor:end;" transform="matrix(1 0 0 1 3036 1987)">Typeset at 100.0 points</text>
  <text style="stroke:none;fill:black;font-family:sans-serif;font-size:13;" transform="matrix(1 0 0 1 263 726)">Small</text>
  <text style="stroke:none;fill:black;font-family:sans-serif;font-size:13;" transform="matrix(1 0 0 1 263 1156)">Medium</text>
  <text style="stroke:none;fill:black;font-family:sans-serif;font-size:13;" transform="matrix(1 0 0 1 263 1586)">Large</text>
 </g>
 <g id="Guides">
  <g id="H-reference" style="fill:#27AAE1;stroke:none;" transform="matrix(1 0 0 1 339 696)">
   <path d="M0.993654 0L3.63775 0L29.3281-67.1323L30.0303-67.1323L30.0303-70.459L28.1226-70.459ZM11.6885-24.4799L46.9815-24.4799L46.2315-26.7285L12.4385-26.7285ZM55.1196 0L57.7637 0L30.6382-70.459L29.4326-70.459L29.4326-67.1323Z"/>
  </g>
  <line id="Baseline-S" style="fill:none;stroke:#27AAE1;opacity:1;stroke-width:0.5;" x1="263" x2="3036" y1="696" y2="696"/>
  <line id="Capline-S" style="fill:none;stroke:#27AAE1;opacity:1;stroke-width:0.5;" x1="263" x2="3036" y1="625.541" y2="625.541"/>
  <g id="H-reference" style="fill:#27AAE1;stroke:none;" transform="matrix(1 0 0 1 339 1126)">
   <path d="M0.993654 0L3.63775 0L29.3281-67.1323L30.0303-67.1323L30.0303-70.459L28.1226-70.459ZM11.6885-24.4799L46.9815-24.4799L46.2315-26.7285L12.4385-26.7285ZM55.1196 0L57.7637 0L30.6382-70.459L29.4326-70.459L29.4326-67.1323Z"/>
  </g>
  <line id="Baseline-M" style="fill:none;stroke:#27AAE1;opacity:1;stroke-width:0.5;" x1="263" x2="3036" y1="1126" y2="1126"/>
  <line id="Capline-M" style="fill:none;stroke:#27AAE1;opacity:1;stroke-width:0.5;" x1="263" x2="3036" y1="1055.54" y2="1055.54"/>
  <g id="H-reference" style="fill:#27AAE1;stroke:none;" transform="matrix(1 0 0 1 339 1556)">
   <path d="M0.993654 0L3.63775 0L29.3281-67.1323L30.0303-67.1323L30.0303-70.459L28.1226-70.459ZM11.6885-24.4799L46.9815-24.4799L46.2315-26.7285L12.4385-26.7285ZM55.1196 0L57.7637 0L30.6382-70.459L29.4326-70.459L29.4326-67.1323Z"/>
  </g>
  <line id="Baseline-L" style="fill:none;stroke:#27AAE1;opacity:1;stroke-width:0.5;" x1="263" x2="3036" y1="1556" y2="1556"/>
  <line id="Capline-L" style="fill:none;stroke:#27AAE1;opacity:1;stroke-width:0.5;" x1="263" x2="3036" y1="1485.54" y2="1485.54"/>
  <line id="left-margin-Ultralight-S" style="fill:none;stroke:#00AEEF;stroke-width:0.5;opacity:1.0;" x1="510.77" x2="510.77" y1="600.785" y2="720.121"/>
  <line id="right-margin-Ultralight-S" style="fill:none;stroke:#00AEEF;stroke-width:0.5;opacity:1.0;" x1="608.653" x2="608.653" y1="600.785" y2="720.121"/>
  <line id="left-margin-Regular-S" style="fill:none;stroke:#00AEEF;stroke-width:0.5;opacity:1.0;" x1="1399.72" x2="1399.72" y1="600.785" y2="720.121"/>
  <line id="right-margin-Regular-S" style="fill:none;stroke:#00AEEF;stroke-width:0.5;opacity:1.0;" x1="1499.97" x2="1499.97" y1="600.785" y2="720.121"/>
  <line id="left-margin-Black-S" style="fill:none;stroke:#00AEEF;stroke-width:0.5;opacity:1.0;" x1="2879.86" x2="2879.86" y1="600.785" y2="720.121"/>
  <line id="right-margin-Black-S" style="fill:none;stroke:#00AEEF;stroke-width:0.5;opacity:1.0;" x1="2986.94" x2="2986.94" y1="600.785" y2="720.121"/>
 </g>
 <g id="Symbols">
  <g id="Black-S" transform="matrix(1 0 0 1 2879.86 696)">
   <path class="monochrome-0 multicolor-0:tintColor hierarchical-0:secondary SFSymbolsPreviewWireframe" d="M53.5645 5.22461C54.1992 5.22461 54.834 5.17578 55.5176 5.12695L57.373 8.64258C58.0566 10.2539 59.8145 11.1328 61.6699 10.8398C63.3789 10.5469 64.6973 9.13086 64.9414 7.37305L65.4785 3.36914C66.748 3.02734 67.9688 2.53906 69.1406 2.09961L72.1191 4.73633C73.4375 5.9082 75.293 6.20117 76.9531 5.27344C78.4668 4.3457 79.1992 2.63672 78.8086 0.927734L77.9297-3.02734C78.9551-3.80859 79.9805-4.63867 81.0059-5.56641L84.7168-3.95508C86.3281-3.27148 88.1348-3.75977 89.3555-5.17578C90.3809-6.44531 90.625-8.30078 89.6484-9.86328L87.5-13.3301C88.1836-14.4043 88.8184-15.5273 89.4043-16.6992L93.457-16.5039C95.2148-16.4062 96.875-17.4805 97.4121-19.1895C97.998-20.8008 97.4121-22.7051 96.0938-23.7305L92.8711-26.2207C93.1641-27.4902 93.457-28.8086 93.6035-30.0781L97.4121-31.3477C99.1699-31.9336 100.244-33.3984 100.244-35.1562C100.244-36.9141 99.1699-38.3789 97.4121-38.9648L93.6035-40.2344C93.457-41.5039 93.1641-42.7734 92.8711-44.0918L96.0449-46.582C97.4121-47.6562 97.998-49.4629 97.4121-51.0254C96.875-52.7832 95.2148-53.8086 93.457-53.7598L89.4043-53.6133C88.8184-54.7852 88.1836-55.9082 87.5-57.0312L89.6484-60.4492C90.5762-61.9141 90.3809-63.8184 89.3555-65.0879C88.1348-66.5039 86.377-66.9922 84.668-66.3086L80.9082-64.7949C79.9805-65.625 78.9551-66.4551 77.9297-67.2852L78.8086-71.2402C79.1992-72.998 78.418-74.707 76.8555-75.5859C75.2441-76.4648 73.3398-76.2695 72.1191-75.0488L69.1406-72.3633C67.9688-72.8516 66.6992-73.291 65.4785-73.6816L64.9414-77.6367C64.6973-79.3945 63.3789-80.8105 61.5723-81.1523C59.8145-81.3965 58.1543-80.4688 57.4219-79.0527L55.5176-75.4395C54.834-75.4883 54.1992-75.4883 53.5645-75.4883C52.8809-75.4883 52.2461-75.4883 51.5625-75.4395L49.707-79.0039C48.9258-80.5176 47.2656-81.3965 45.4102-81.1035C43.7012-80.8105 42.3828-79.3945 42.1387-77.6367L41.6016-73.6816C40.3809-73.291 39.1113-72.8516 37.9395-72.3633L35.0098-75C33.7402-76.2695 31.8359-76.4648 30.1758-75.5859C28.6621-74.707 27.8809-72.998 28.2715-71.1914L29.1504-67.2852C28.125-66.4551 27.0996-65.625 26.123-64.7949L22.3633-66.3086C20.7031-66.9922 18.9453-66.5039 17.7246-65.0879C16.6992-63.8184 16.5039-61.9141 17.4316-60.4492L19.5801-57.0312C18.8965-55.9082 18.2617-54.7852 17.6758-53.6133L13.623-53.7598C11.8652-53.8086 10.2051-52.7832 9.66797-51.0742C9.08203-49.4629 9.66797-47.6074 10.9863-46.582L14.209-44.043C13.916-42.7734 13.623-41.5039 13.4766-40.2344L9.66797-38.9648C7.91016-38.3789 6.83594-36.9141 6.83594-35.1562C6.83594-33.3984 7.91016-31.9336 9.66797-31.3477L13.4766-30.0781C13.623-28.8086 13.916-27.4902 14.209-26.2207L11.0352-23.7305C9.66797-22.6562 9.08203-20.8008 9.66797-19.2383C10.2051-17.4805 11.8652-16.4062 13.6719-16.5039L17.6758-16.6992C18.2617-15.5273 18.8965-14.4043 19.5801-13.3301L17.3828-9.81445C16.4551-8.34961 16.6992-6.44531 17.7246-5.17578C18.9453-3.75977 20.7031-3.27148 22.4121-4.00391L26.0742-5.56641C27.0996-4.63867 28.125-3.80859 29.1504-3.02734L28.2715 0.976562C27.9297 2.63672 28.6133 4.3457 30.2246 5.32227C31.7871 6.20117 33.6914 5.95703 34.9609 4.78516L37.9395 2.09961C39.1113 2.53906 40.332 3.02734 41.6016 3.36914L42.1387 7.37305C42.3828 9.13086 43.7012 10.5469 45.5078 10.8887C47.2656 11.1328 48.9258 10.2051 49.707 8.69141L51.5625 5.12695C52.2461 5.17578 52.8809 5.22461 53.5645 5.22461ZM53.5645-7.37305C38.1836-7.37305 25.7324-19.8242 25.7324-35.2051C25.7324-50.5859 38.1836-63.0371 53.5645-63.0371C68.9453-63.0371 81.3965-50.5859 81.3965-35.2051C81.3965-19.8242 68.9453-7.37305 53.5645-7.37305Z"/>
   <path class="monochrome-1 multicolor-1:tintColor hierarchical-1:primary SFSymbolsPreviewWireframe" d="M51.6113-19.4336C56.0059-19.4336 59.4727-22.9004 59.4727-27.3438C59.4727-30.3711 57.7148-32.7637 55.6152-34.082C54.541-34.7656 54.1016-35.5957 54.1016-36.8164L54.1016-48.584C54.1016-50.1953 52.9785-51.2207 51.6113-51.2207C50.2441-51.2207 49.1211-50.1953 49.1211-48.584L49.1211-36.8164C49.1211-35.5957 48.6816-34.7656 47.6074-34.082C45.5078-32.7637 43.75-30.3711 43.75-27.3438C43.75-22.9004 47.2168-19.4336 51.6113-19.4336ZM59.7656-46.7285L64.3066-46.7285C65.3809-46.7285 66.1621-47.5098 66.1621-48.584C66.1621-49.707 65.4297-50.4395 64.3066-50.4395L59.7656-50.4395C58.6914-50.4395 57.9102-49.6582 57.9102-48.584C57.9102-47.5098 58.6914-46.7285 59.7656-46.7285ZM59.7656-41.1133L64.3066-41.1133C65.4297-41.1133 66.1621-41.8457 66.1621-42.9199C66.1621-44.043 65.4297-44.7754 64.3066-44.7754L59.7656-44.7754C58.6914-44.7754 57.9102-43.9941 57.9102-42.9199C57.9102-41.8945 58.6914-41.1133 59.7656-41.1133ZM59.7656-35.3027L64.3066-35.3027C65.4297-35.3027 66.1621-36.0352 66.1621-37.1582C66.1621-38.2812 65.4297-39.0137 64.3066-39.0137L59.7656-39.0137C58.6914-39.0137 57.9102-38.2324 57.9102-37.1582C57.9102-36.084 58.6914-35.3027 59.7656-35.3027Z"/>
  </g>
  <g id="Regular-S" transform="matrix(1 0 0 1 1399.72 696)">
   <path class="monochrome-0 multicolor-0:tintColor hierarchical-0:secondary SFSymbolsPreviewWireframe" d="M50.1465 2.24609C51.0742 2.24609 51.9043 2.14844 52.9297 2.09961L55.1758 6.39648C55.6641 7.32422 56.5918 7.76367 57.6172 7.61719C58.5938 7.42188 59.375 6.64062 59.5215 5.61523L60.2051 0.830078C61.9629 0.341797 63.7207-0.341797 65.4785-1.07422L68.9941 2.14844C69.7754 2.83203 70.8008 2.97852 71.7773 2.44141C72.6562 1.95312 73.0469 0.927734 72.8516-0.0976562L71.8262-4.83398C73.291-5.85938 74.8047-7.03125 76.123-8.34961L80.5664-6.54297C81.543-6.10352 82.5684-6.34766 83.3008-7.22656C83.9355-7.95898 83.9844-9.0332 83.4473-9.91211L80.9082-14.0137C81.9824-15.5273 82.8125-17.1875 83.6426-18.8965L88.4766-18.6523C89.502-18.6035 90.4297-19.2383 90.7715-20.2148C91.1133-21.1914 90.7715-22.2168 89.9902-22.8516L86.1816-25.8301C86.6699-27.5879 87.0605-29.4434 87.207-31.3477L91.748-32.8125C92.7734-33.1543 93.4082-33.9844 93.4082-35.0098C93.4082-36.084 92.7734-36.9141 91.748-37.2559L87.207-38.6719C87.0605-40.625 86.6699-42.4316 86.1816-44.2383L89.9902-47.2168C90.7715-47.8516 91.1133-48.8281 90.7715-49.8047C90.4297-50.7812 89.502-51.3672 88.4766-51.3184L83.6426-51.123C82.8125-52.8809 81.9824-54.4922 80.9082-56.0059L83.4473-60.1074C83.9844-60.9375 83.9355-62.0605 83.3008-62.7441C82.5684-63.623 81.543-63.8672 80.5664-63.4766L76.123-61.7188C74.8047-62.9395 73.291-64.209 71.8262-65.2344L72.8516-69.9219C73.0469-70.9961 72.6562-71.9727 71.7773-72.4609C70.8008-72.998 69.7754-72.9004 68.9941-72.1191L65.4785-68.9941C63.7207-69.7266 61.9629-70.3613 60.2051-70.8984L59.5215-75.6348C59.375-76.6602 58.5938-77.4414 57.6172-77.6367C56.5918-77.7832 55.6152-77.2949 55.1758-76.4648L52.9297-72.1191C51.9043-72.168 51.0742-72.2168 50.1465-72.2168C49.1211-72.2168 48.291-72.168 47.3145-72.1191L45.0195-76.4648C44.5801-77.2949 43.6523-77.7832 42.5781-77.6367C41.6016-77.4414 40.8691-76.6602 40.7227-75.6348L40.0391-70.8984C38.2324-70.3613 36.4746-69.7266 34.7656-68.9941L31.2012-72.1191C30.4199-72.9004 29.3945-72.998 28.418-72.4609C27.5879-71.9727 27.1484-70.9961 27.3926-69.9219L28.3691-65.2344C26.9043-64.209 25.3906-62.9395 24.0723-61.7188L19.6777-63.4766C18.6523-63.8672 17.6758-63.623 16.9434-62.7441C16.3086-62.0605 16.2109-60.9375 16.748-60.1562L19.2871-56.0059C18.2617-54.4922 17.3828-52.8809 16.5527-51.123L11.7188-51.3184C10.6934-51.3672 9.76562-50.7812 9.42383-49.8047C9.13086-48.8281 9.42383-47.8516 10.2539-47.2168L14.0137-44.2383C13.5742-42.4316 13.1836-40.625 13.0371-38.6719L8.44727-37.2559C7.4707-36.9141 6.83594-36.084 6.83594-35.0098C6.83594-33.9844 7.4707-33.1543 8.44727-32.8125L13.0371-31.3477C13.1836-29.4434 13.5742-27.5879 14.0137-25.8301L10.2539-22.8516C9.42383-22.2168 9.13086-21.1914 9.42383-20.2148C9.76562-19.2383 10.6934-18.6035 11.7188-18.6523L16.5527-18.8965C17.3828-17.1875 18.2617-15.5273 19.2871-14.0137L16.748-9.91211C16.2109-9.0332 16.3086-7.95898 16.9434-7.22656C17.6758-6.34766 18.6523-6.10352 19.6777-6.54297L24.0723-8.34961C25.3906-7.03125 26.9043-5.85938 28.3691-4.83398L27.3926-0.0976562C27.1973 0.927734 27.5879 1.95312 28.418 2.44141C29.3945 2.97852 30.4199 2.83203 31.2012 2.14844L34.7656-1.07422C36.4746-0.341797 38.2324 0.341797 40.0391 0.830078L40.7227 5.61523C40.8691 6.64062 41.6016 7.42188 42.5781 7.61719C43.6523 7.76367 44.5312 7.32422 45.0195 6.39648L47.3145 2.09961C48.291 2.14844 49.1211 2.24609 50.1465 2.24609ZM50.1465-4.39453C33.0566-4.39453 19.873-18.0176 19.873-34.9609C19.873-52.002 33.0566-65.625 50.1465-65.625C67.1875-65.625 80.3711-52.002 80.3711-34.9609C80.3711-18.0176 67.1875-4.39453 50.1465-4.39453Z"/>
   <path class="monochrome-1 multicolor-1:tintColor hierarchical-1:primary SFSymbolsPreviewWireframe" d="M48.6816-14.4043C53.5156-14.4043 57.4219-18.3105 57.4219-23.1934C57.4219-26.5625 55.5176-29.3457 52.7344-30.8594C51.9043-31.3477 51.5625-31.9336 51.5625-33.252L51.5625-52.1973C51.5625-53.8086 50.2441-55.127 48.6816-55.127C47.0703-55.127 45.752-53.8086 45.752-52.1973L45.752-33.252C45.752-31.9336 45.459-31.3477 44.5801-30.8594C41.7969-29.3457 39.8926-26.5625 39.8926-23.1934C39.8926-18.3105 43.7988-14.4043 48.6816-14.4043ZM58.0566-46.582L65.332-46.582C66.5039-46.582 67.4316-47.5098 67.4316-48.6328C67.4316-49.8047 66.5039-50.7324 65.332-50.7324L58.0566-50.7324C56.9336-50.7324 56.0059-49.8047 56.0059-48.6328C56.0059-47.5098 56.9336-46.582 58.0566-46.582ZM58.0566-39.5996L65.332-39.5996C66.5039-39.5996 67.4316-40.5273 67.4316-41.6992C67.4316-42.8223 66.5039-43.75 65.332-43.75L58.0566-43.75C56.9336-43.75 56.0059-42.8223 56.0059-41.6992C56.0059-40.5273 56.9336-39.5996 58.0566-39.5996ZM58.0566-32.5684L65.332-32.5684C66.5039-32.5684 67.4316-33.5449 67.4316-34.7168C67.4316-35.791 66.5039-36.7676 65.332-36.7676L58.0566-36.7676C56.9336-36.7676 56.0059-35.791 56.0059-34.7168C56.0059-33.5449 56.9336-32.5684 58.0566-32.5684Z"/>
  </g>
  <g id="Ultralight-S" transform="matrix(1 0 0 1 510.77 696)">
   <path class="monochrome-0 multicolor-0:tintColor hierarchical-0:secondary SFSymbolsPreviewWireframe" d="M48.9204 2.01904C50.2114 2.01904 51.4956 1.9668 52.7026 1.78174L54.5855 5.39747C54.9375 6.05274 55.3203 6.26515 56.3003 6.16407C57.186 6.05958 57.4224 5.77784 57.5689 4.84327L58.1616 0.830078C60.5552 0.250977 62.9941-0.614256 65.2061-1.70996L68.1768 0.876963C68.8218 1.42433 69.166 1.5254 70.0518 1.12452C70.749 0.77247 70.958 0.382817 70.7627-0.597164L69.9644-4.47071C72.0195-5.85938 73.9873-7.43994 75.7144-9.30322L79.3403-7.81444C80.0899-7.51122 80.5249-7.4829 81.2573-8.3164C81.9375-8.91259 81.8501-9.35107 81.3584-10.1392L79.228-13.5596C80.7109-15.5728 82.0405-17.7778 83.0068-20.0317L87.0234-19.833C87.9126-19.7842 88.2954-20.0102 88.5464-20.8506C88.8428-21.6909 88.6826-22.126 87.9922-22.6699L84.8648-25.1943C85.5347-27.5425 85.9253-30.0337 86.1172-32.6191L89.9317-33.7661C90.7754-34.0171 91.0469-34.4839 91.0469-35.3276C91.0469-36.1748 90.8208-36.5962 89.9317-36.8926L86.1172-38.0815C85.9253-40.625 85.4893-43.1128 84.8648-45.5098L87.9922-47.9888C88.5918-48.4873 88.752-48.8735 88.5464-49.7593C88.2954-50.5996 87.9126-50.8677 87.0234-50.8189L83.0068-50.6689C81.9951-52.9263 80.7109-55.0825 79.228-57.1411L81.3584-60.5161C81.8047-61.2554 81.8921-61.6973 81.2573-62.3355C80.5249-63.1689 80.0899-63.1406 79.3403-62.8408L75.7144-61.3555C73.9873-63.1665 72.0195-64.7539 69.9644-66.1426L70.7627-70.0127C70.958-70.9961 70.749-71.4277 70.0518-71.7798C69.166-72.2261 68.8218-72.1284 68.1768-71.5742L65.2061-68.9487C62.9941-69.999 60.5552-70.8608 58.1616-71.4434L57.5689-75.4531C57.4224-76.3877 57.1406-76.7148 56.2549-76.8193C55.3203-76.9204 54.9341-76.7046 54.5855-76.0562L52.7026-72.3916C51.4956-72.5312 50.2114-72.6255 48.9204-72.6255C47.7134-72.6255 46.4746-72.5312 45.2256-72.3916L43.3394-76.0562C42.9907-76.7046 42.5625-76.9204 41.6245-76.8193C40.7388-76.7148 40.5059-76.3877 40.3594-75.4531L39.7666-71.4888C37.3696-70.8608 34.9307-70.0444 32.7222-68.9487L29.7481-71.5288C29.103-72.1284 28.7134-72.1807 27.8731-71.7798C27.1792-71.4277 26.9668-70.9961 27.1655-70.0127L27.9605-66.1426C25.9053-64.7539 23.9375-63.1665 22.2105-61.3555L18.5425-62.8408C17.835-63.1406 17.4033-63.1689 16.6709-62.3355C16.0361-61.6973 16.1201-61.21 16.521-60.5649L18.6968-57.1411C17.2627-55.0825 15.9297-52.9263 14.918-50.6689L10.9014-50.8189C10.0122-50.8677 9.67481-50.5996 9.37842-49.7593C9.04004-48.8735 9.24219-48.5781 9.93604-47.9888L13.0601-45.5098C12.3936-43.1128 11.9575-40.625 11.7656-38.127L7.99317-36.8926C7.10742-36.5962 6.83594-36.2202 6.83594-35.3276C6.83594-34.4385 7.10742-34.0625 7.99317-33.7661L11.7656-32.5737C11.9575-30.0337 12.3482-27.5425 13.0601-25.1943L9.93604-22.6699C9.33301-22.1714 9.08545-21.7817 9.37842-20.8506C9.6294-20.0102 10.0122-19.7842 10.9014-19.833L14.918-20.0317C15.8843-17.7778 17.2627-15.5728 18.6514-13.5596L16.5664-10.1392C16.0747-9.35107 15.9907-8.91259 16.6709-8.3164C17.4033-7.4829 17.835-7.51122 18.5425-7.81444L22.2105-9.30322C23.9375-7.43994 25.9053-5.85938 27.9605-4.47071L27.1655-0.597164C26.9702 0.382817 27.1792 0.77247 27.8731 1.12452C28.7588 1.5254 29.103 1.42433 29.7481 0.876963L32.6768-1.70996C34.9307-0.614256 37.3696 0.250977 39.7666 0.875488L40.3594 4.84327C40.5059 5.77784 40.7388 6.05958 41.6699 6.16407C42.5625 6.26515 42.9873 6.05274 43.3394 5.39747L45.2256 1.78174C46.3838 1.9668 47.7134 2.01904 48.9204 2.01904ZM48.9204-0.12601C29.4693-0.12601 14.2422-15.6563 14.2422-35.3242C14.2422-54.999 29.4693-70.4838 48.9204-70.4838C68.4136-70.4838 83.686-54.999 83.686-35.3242C83.686-15.6563 68.4136-0.12601 48.9204-0.12601Z"/>
   <path class="monochrome-1 multicolor-1:tintColor hierarchical-1:primary SFSymbolsPreviewWireframe" d="M47.4102-15.2217C52.3804-15.2217 56.4229-19.1733 56.4229-24.1924C56.4229-27.7432 54.4277-30.6172 51.5537-32.1308C50.4058-32.7554 50.0186-33.2505 50.0186-34.9775L50.0186-51.2891C50.0186-52.855 48.9273-53.9463 47.4102-53.9463C45.8897-53.9463 44.8438-52.855 44.8438-51.2891L44.8438-34.9775C44.8438-33.2505 44.46-32.7554 43.2632-32.1308C40.3892-30.6172 38.4395-27.7432 38.4395-24.1924C38.4395-19.1733 42.4365-15.2217 47.4102-15.2217ZM55.7862-48.7163L61.5176-48.7163C62.0992-48.7163 62.5728-49.1899 62.5728-49.7681C62.5728-50.3042 62.0992-50.7778 61.5176-50.7778L55.7862-50.7778C55.208-50.7778 54.7344-50.3042 54.7344-49.7681C54.7344-49.1899 55.208-48.7163 55.7862-48.7163ZM55.7862-42.9145L61.5176-42.9145C62.0992-42.9145 62.5728-43.3428 62.5728-43.9243C62.5728-44.5024 62.0992-44.9761 61.5176-44.9761L55.7862-44.9761C55.208-44.9761 54.7344-44.5024 54.7344-43.9243C54.7344-43.3428 55.208-42.9145 55.7862-42.9145ZM55.7862-36.9731L61.5176-36.9731C62.0992-36.9731 62.5728-37.4502 62.5728-38.0317C62.5728-38.561 62.0992-39.0381 61.5176-39.0381L55.7862-39.0381C55.208-39.0381 54.7344-38.561 54.7344-38.0317C54.7344-37.4502 55.208-36.9731 55.7862-36.9731Z"/>
  </g>
 </g>
</svg>
